<?xml version="1.0" encoding="UTF-8" standalone="no" ?>
<!DOCTYPE svg PUBLIC "-//W3C//DTD SVG 1.1//EN" "http://www.w3.org/Graphics/SVG/1.1/DTD/svg11.dtd">
<svg xmlns="http://www.w3.org/2000/svg" xmlns:xlink="http://www.w3.org/1999/xlink" version="1.1" width="1080" height="1080" viewBox="0 0 1080 1080" xml:space="preserve">
<desc>Created with Fabric.js 5.2.4</desc>
<defs>
</defs>
<g transform="matrix(1 0 0 1 540 540)" id="06f4c2c6-cb2e-432a-bc04-d7589f78102b"  >
<rect style="stroke: none; stroke-width: 1; stroke-dasharray: none; stroke-linecap: butt; stroke-dashoffset: 0; stroke-linejoin: miter; stroke-miterlimit: 4; fill: rgb(255,255,255); fill-rule: nonzero; opacity: 1; visibility: hidden;" vector-effect="non-scaling-stroke"  x="-540" y="-540" rx="0" ry="0" width="1080" height="1080" />
</g>
<g transform="matrix(1 0 0 1 540 540)" id="0e0f4051-647d-4a39-b963-df00dd2159aa"  >
</g>
<g transform="matrix(1 0 0 1 540 540)" id="e12c6035-2a1d-4bfb-8609-ccc2370f5416"  >
<path style="stroke: rgb(0,0,0); stroke-width: 0; stroke-dasharray: none; stroke-linecap: butt; stroke-dashoffset: 0; stroke-linejoin: miter; stroke-miterlimit: 4; fill: rgb(191,5,242); fill-rule: nonzero; opacity: 1;" vector-effect="non-scaling-stroke"  transform=" translate(-486.5, 486.5)" d="M 180 -180 L 224 -180 L 667 -623 L 623 -667 L 180 -224 L 180 -180 Z M 794 -666 L 666 -794 L 708 -836 Q 725 -853 750 -853 Q 775 -853 792 -836 L 836 -792 Q 853 -775 853 -750 Q 853 -725 836 -708 L 794 -666 Z M 752 -624 L 248 -120 L 120 -120 L 120 -248 L 624 -752 L 752 -624 Z M 645 -645 L 623 -667 L 667 -623 L 645 -645 Z" stroke-linecap="round" />
</g>
<g transform="matrix(NaN NaN NaN NaN 0 0)"  >
<g style=""   >
</g>
</g>
<g transform="matrix(NaN NaN NaN NaN 0 0)"  >
<g style=""   >
</g>
</g>
</svg>